<svg width="52" height="31" viewBox="0 0 52 31" fill="none" xmlns="http://www.w3.org/2000/svg">
<path fill-rule="evenodd" clip-rule="evenodd" d="M18 15C18 13.3431 18.747 12 19.6685 12H49.3315C50.253 12 51 13.3431 51 15C51 16.6568 50.253 18 49.3315 18H19.6685C18.747 18 18 16.6568 18 15Z" fill="black"/>
<path fill-rule="evenodd" clip-rule="evenodd" d="M0.325684 28C0.325684 26.3431 1.48019 25 2.90434 25H48.747C50.1712 25 51.3257 26.3431 51.3257 28C51.3257 29.6569 50.1712 31 48.747 31H2.90434C1.48019 31 0.325684 29.6569 0.325684 28Z" fill="black"/>
<path fill-rule="evenodd" clip-rule="evenodd" d="M0 3C0 1.34315 1.1545 0 2.57865 0H48.4213C49.8455 0 51 1.34315 51 3C51 4.65685 49.8455 6 48.4213 6H2.57865C1.1545 6 0 4.65685 0 3Z" fill="black"/>
</svg>
