<svg width="68" height="40" viewBox="0 0 68 40" fill="none" xmlns="http://www.w3.org/2000/svg">
<path fill-rule="evenodd" clip-rule="evenodd" d="M11.2104 0.87923C12.4312 -0.240957 14.2014 -0.298392 15.1643 0.750945L46.1582 34.5286C47.1211 35.5779 46.912 37.3367 45.6912 38.4569C44.4704 39.5771 42.7002 39.6345 41.7373 38.5852L10.7434 4.8075C9.78055 3.75816 9.98965 1.99942 11.2104 0.87923Z" fill="black"/>
<path fill-rule="evenodd" clip-rule="evenodd" d="M45.9998 1.61632C47.1846 2.77453 47.338 4.539 46.3424 5.55739L14.2966 38.3387C13.3011 39.3571 11.5336 39.2438 10.3488 38.0856C9.16398 36.9274 9.01056 35.1629 10.0061 34.1445L42.0519 1.36315C43.0475 0.344769 44.815 0.458116 45.9998 1.61632Z" fill="black"/>
</svg>
